# xmcd
#
# Track frame offsets:
#	150
#	11722
#	25597
#	39215
#	51582
#	65510
#	78237
#	89027
#	101347
#	113837
#
# Disc length: 1704
#
# Revision: 2
# Processed by: cddbd v1.5.1PL0 Copyright (c) Steve Scherf et al.
# Submitted via: CDex 1.50beta10
# Normalized: r0:DSETVAR1,TDELIM( - ),TSWAP
#
DISCID=7706a60a
DTITLE=Various Artist - Roots Of Blues
DYEAR=1991
DGENRE=Blues
TTITLE0=Sonny Boy Williamson - 01 Don't Start Me Talkin'
TTITLE1=Little Walter - 02 Blues With A Feelin'
TTITLE2=Chuck Berry - 03 Blue Feelin'
TTITLE3=Bo Diddley - 04 I'm A Man
TTITLE4=Howlin' Wolf - 05 Smokestack Lightnin'
TTITLE5=Lowell Fulson - 06 Lonely Hours
TTITLE6=Memphis Slim - 07 Havin' Fun
TTITLE7=John Lee Hooker - 08 Wlakin' The Boogie
TTITLE8=Jimmy Rodgers - 09 Walkin' By Myself
TTITLE9=Buddy Guy - 10 My Time After A While
EXTD=YEAR: 1991
EXTT0=
EXTT1=
EXTT2=
EXTT3=
EXTT4=
EXTT5=
EXTT6=
EXTT7=
EXTT8=
EXTT9=
PLAYORDER=
